<?xml version="1.0" standalone="no"?>
<!DOCTYPE svg PUBLIC "-//W3C//DTD SVG 20010904//EN"
 "http://www.w3.org/TR/2001/REC-SVG-20010904/DTD/svg10.dtd">
<svg version="1.0" xmlns="http://www.w3.org/2000/svg"
 width="282.000000pt" height="282.000000pt" viewBox="0 0 282.000000 282.000000"
 preserveAspectRatio="xMidYMid meet">

<g transform="translate(0.000000,282.000000) scale(0.100000,-0.100000)"
fill="var(--text-color)" stroke="none">
<path d="M802 2590 c-46 -43 -13 -130 49 -130 50 0 90 61 68 102 -27 51 -79
63 -117 28z m81 -42 c8 -12 7 -21 -2 -32 -19 -22 -48 -20 -61 5 -23 41 38 68
63 27z"/>
<path d="M1362 2587 c-12 -13 -22 -36 -22 -51 0 -32 43 -76 75 -76 33 0 75 44
75 78 0 63 -84 95 -128 49z m85 -33 c8 -22 -10 -49 -32 -49 -10 0 -22 7 -28
16 -15 24 -1 49 28 49 15 0 28 -7 32 -16z"/>
<path d="M1939 2597 c-43 -33 -46 -80 -6 -117 45 -43 117 -7 117 58 0 56 -68
92 -111 59z m70 -41 c9 -11 10 -20 1 -36 -13 -25 -47 -24 -63 2 -22 34 36 66
62 34z"/>
<path d="M231 2014 c-34 -44 -24 -86 27 -113 28 -15 77 1 92 30 42 78 -65 152
-119 83z m86 -30 c8 -22 -10 -49 -32 -49 -10 0 -22 7 -28 16 -15 24 -1 49 28
49 15 0 28 -7 32 -16z"/>
<path d="M799 2019 c-48 -48 5 -146 67 -123 15 5 36 21 47 36 18 24 18 30 7
58 -22 53 -82 68 -121 29z m84 -41 c8 -12 7 -21 -2 -32 -19 -22 -48 -20 -61 5
-23 41 38 68 63 27z"/>
<path d="M1362 2017 c-27 -29 -28 -67 -2 -94 37 -40 84 -37 117 6 52 68 -57
150 -115 88z m85 -33 c8 -22 -10 -49 -32 -49 -10 0 -22 7 -28 16 -15 24 -1 49
28 49 15 0 28 -7 32 -16z"/>
<path d="M1939 2030 c-9 -5 -22 -23 -29 -40 -11 -28 -11 -34 7 -58 47 -63 125
-45 131 31 5 60 -56 98 -109 67z m70 -44 c25 -30 -24 -71 -54 -46 -18 15 -19
32 -3 48 16 16 43 15 57 -2z"/>
<path d="M2481 2014 c-34 -44 -24 -86 27 -113 28 -15 77 1 92 30 42 78 -65
152 -119 83z m86 -30 c8 -22 -10 -49 -32 -49 -10 0 -22 7 -28 16 -15 24 -1 49
28 49 15 0 28 -7 32 -16z"/>
<path d="M236 1454 c-14 -15 -26 -37 -26 -49 0 -33 44 -75 78 -75 63 0 95 84
49 128 -31 29 -69 28 -101 -4z m79 -49 c0 -25 -4 -30 -24 -30 -32 0 -49 28
-31 50 7 9 23 15 34 13 16 -2 21 -10 21 -33z"/>
<path d="M802 1457 c-64 -68 27 -171 95 -107 29 26 36 55 22 82 -28 52 -81 63
-117 25z m79 -33 c17 -21 0 -49 -31 -49 -31 0 -48 28 -31 49 8 9 21 16 31 16
10 0 23 -7 31 -16z"/>
<path d="M1365 1455 c-32 -31 -33 -74 -2 -103 72 -67 172 34 102 103 -13 14
-36 25 -50 25 -14 0 -37 -11 -50 -25z m75 -30 c20 -25 8 -50 -25 -50 -21 0
-31 5 -33 18 -4 21 14 47 33 47 7 0 18 -7 25 -15z"/>
<path d="M1939 1467 c-43 -33 -46 -80 -6 -117 45 -43 117 -10 117 54 0 58 -67
97 -111 63z m72 -43 c17 -21 0 -49 -31 -49 -31 0 -48 28 -31 49 8 9 21 16 31
16 10 0 23 -7 31 -16z"/>
<path d="M2486 1454 c-14 -15 -26 -37 -26 -49 0 -33 44 -75 78 -75 63 0 95 84
49 128 -31 29 -69 28 -101 -4z m79 -49 c0 -25 -4 -30 -24 -30 -32 0 -49 28
-31 50 7 9 23 15 34 13 16 -2 21 -10 21 -33z"/>
<path d="M231 884 c-12 -15 -21 -34 -21 -44 0 -10 9 -29 21 -44 41 -52 129
-23 129 44 0 67 -88 96 -129 44z m77 -16 c17 -17 15 -43 -4 -59 -31 -26 -70
25 -44 56 15 18 32 19 48 3z"/>
<path d="M800 890 c-45 -45 -11 -120 53 -120 42 0 70 29 70 70 0 63 -78 95
-123 50z m74 -23 c13 -9 16 -20 12 -34 -10 -31 -36 -37 -60 -14 -19 20 -19 21
-1 41 21 24 25 24 49 7z"/>
<path d="M1360 888 c-43 -47 -10 -118 55 -118 22 0 41 8 55 22 43 47 10 118
-55 118 -22 0 -41 -8 -55 -22z m78 -20 c17 -17 15 -43 -4 -59 -31 -26 -70 25
-44 56 15 18 32 19 48 3z"/>
<path d="M1925 890 c-42 -46 -10 -120 52 -120 42 0 73 30 73 70 0 62 -84 95
-125 50z m80 -30 c18 -20 18 -21 -1 -41 -24 -23 -50 -17 -60 14 -4 14 -1 25
12 34 24 17 28 17 49 -7z"/>
<path d="M2481 884 c-12 -15 -21 -34 -21 -44 0 -10 9 -29 21 -44 41 -52 129
-23 129 44 0 67 -88 96 -129 44z m77 -16 c17 -17 15 -43 -4 -59 -31 -26 -70
25 -44 56 15 18 32 19 48 3z"/>
<path d="M802 330 c-46 -43 -13 -130 49 -130 50 0 90 61 68 102 -27 51 -79 63
-117 28z m81 -42 c8 -12 7 -21 -2 -32 -19 -22 -48 -20 -61 5 -23 41 38 68 63
27z"/>
<path d="M1362 327 c-12 -13 -22 -36 -22 -51 0 -32 43 -76 75 -76 33 0 75 44
75 78 0 63 -84 95 -128 49z m85 -33 c8 -22 -10 -49 -32 -49 -22 0 -40 27 -32
49 8 21 56 21 64 0z"/>
<path d="M1939 337 c-43 -33 -46 -80 -6 -117 45 -43 117 -7 117 58 0 56 -68
92 -111 59z m70 -41 c9 -11 10 -20 1 -36 -13 -25 -47 -24 -63 2 -22 34 36 66
62 34z"/>
</g>
</svg>
