<svg width="112" height="39" viewBox="0 0 112 39" fill="none" xmlns="http://www.w3.org/2000/svg">
<path d="M111.276 8.76404L95.476 0.864014L79.376 8.86401L63.2759 0.864014L47.176 8.86401L31.176 0.864014L15.076 8.86401L0.475952 1.66403V3.86401L15.076 11.164L31.176 3.16403L47.176 11.164L63.2759 3.16403L79.376 11.164L95.476 3.16403L111.276 11.064V8.76404Z" fill="black"/>
<path d="M111.276 17.8641L95.476 9.96411L79.376 17.9641L63.2759 9.96411L47.176 17.9641L31.176 9.96411L15.076 17.9641L0.475952 10.7641V12.9641L15.076 20.2641L31.176 12.2641L47.176 20.2641L63.2759 12.2641L79.376 20.2641L95.476 12.2641L111.276 20.1641V17.8641Z" fill="black"/>
<path d="M111.276 26.964L95.476 19.064L79.376 27.064L63.2759 19.064L47.176 27.064L31.176 19.064L15.076 27.064L0.475952 19.864V22.064L15.076 29.264L31.176 21.264L47.176 29.264L63.2759 21.264L79.376 29.264L95.476 21.264L111.276 29.264V26.964Z" fill="black"/>
<path d="M111.276 36.0641L95.476 28.1641L79.376 36.1641L63.2759 28.1641L47.176 36.1641L31.176 28.1641L15.076 36.1641L0.475952 28.864V31.1641L15.076 38.364L31.176 30.364L47.176 38.364L63.2759 30.364L79.376 38.364L95.476 30.364L111.276 38.2641V36.0641Z" fill="black"/>
</svg>
